<?xml version="1.0" encoding="utf-8"?>
<!-- Generator: Adobe Illustrator 16.0.0, SVG Export Plug-In . SVG Version: 6.00 Build 0)  -->
<!DOCTYPE svg PUBLIC "-//W3C//DTD SVG 1.1//EN" "http://www.w3.org/Graphics/SVG/1.1/DTD/svg11.dtd">
<svg version="1.1" id="Layer_1" xmlns="http://www.w3.org/2000/svg" xmlns:xlink="http://www.w3.org/1999/xlink" x="0px" y="0px"
	 viewBox="0 0 150 42.8">
<rect x="71.494" fill="#004C98" width="7.022" height="26.421"/>
<polygon fill="#004C98" points="109.027,0 109.027,5.502 117.861,5.502 117.861,26.421 124.883,26.421 124.883,5.502 133.717,5.502 
	133.717,0 "/>
<g>
	<path fill="#004C98" d="M99.246,10.459h-5.869c-1.559,0-2.822-0.646-2.822-2.479c0-1.836,1.264-2.478,2.822-2.478h12.621V0H92.543
		c-5.021,0-9.094,2.898-9.094,7.979c0,5.086,4.072,7.98,9.094,7.98h6.039c1.559,0,2.82,0.645,2.82,2.479
		c0,1.837-1.262,2.478-2.82,2.478H84.424v5.505h14.822c5.021,0,9.094-2.892,9.094-7.977C108.34,13.364,104.268,10.459,99.246,10.459
		"/>
	<polygon fill="#004C98" points="50.114,0 40.182,23.776 30.714,13.21 42.553,0 34.533,0 23.313,12.542 23.313,0 16.292,0 
		16.292,26.421 23.313,26.421 23.313,13.878 34.533,26.421 46.215,26.421 54.257,6.495 60.096,21.146 50.813,21.146 53.017,26.421 
		69.437,26.421 58.398,0 	"/>
</g>
<g>
	<defs>
		<path id="SVGID_1_" d="M0,37.52c24.5,3.48,49.542,5.284,75.004,5.284c25.465,0,50.504-1.804,75.006-5.284
			c-24.502-3.482-49.541-5.285-75.006-5.285C49.542,32.234,24.5,34.037,0,37.52"/>
	</defs>
	<clipPath id="SVGID_2_">
		<use xlink:href="#SVGID_1_"  overflow="visible"/>
	</clipPath>
	<defs>
		<linearGradient id="SVGID_3_" x1="0%" y1="0%" x2="100%" y2="0%">
		<stop  offset="0" style="stop-color:#4DBEEE"/>
		<stop  offset="0.9" style="stop-color:#0066B3"/>
		<stop  offset="1" style="stop-color:#0066B3"/>
	</linearGradient>
	</defs>
	<rect y="32.234" clip-path="url(#SVGID_2_)" fill="url(#SVGID_3_)" width="150.01" height="10.569"/>
</g>
<g>
	<g opacity="0.5">
		<g>
			<defs>
				<rect id="SVGID_4_" x="58.274" y="12.348" width="33.31" height="25.342"/>
			</defs>
			<clipPath id="SVGID_5_">
				<use xlink:href="#SVGID_4_"  overflow="visible"/>
			</clipPath>
		</g>
	</g>
</g>
</svg>
