<svg width="23" height="23" viewBox="0 0 23 23" fill="none" xmlns="http://www.w3.org/2000/svg">
<g clip-path="url(#clip0_48_597)">
<path d="M17.7455 23H5.25454C2.36213 23 0 20.6325 0 17.7455V5.25454C0 2.36749 2.36749 0 5.25454 0H17.7455C20.6379 0 23 2.36749 23 5.25454V17.7455C23 20.6379 20.6379 23 17.7455 23Z" fill="white"/>
<path d="M16.9689 4.61182H5.95631C4.39762 4.61182 3.12817 5.88662 3.12817 7.43995V14.2853C3.12817 15.844 4.40298 17.1134 5.95631 17.1134H9.84499L10.5145 18.2704L11.1734 19.4113C11.2912 19.6202 11.5911 19.6202 11.7143 19.4113L12.3732 18.2704L13.0427 17.1134H16.9742C18.5329 17.1134 19.8024 15.8386 19.8024 14.2853V7.44531C19.8024 5.88662 18.5276 4.61182 16.9689 4.61182Z" fill="url(#paint0_linear_48_597)"/>
<path d="M12.2335 9.62549C11.3819 9.62549 10.6909 10.3057 10.6909 11.1467C10.6909 11.9876 11.3819 12.6679 12.2335 12.6679C13.0852 12.6679 13.7762 11.9876 13.7762 11.1467C13.7762 10.3057 13.0905 9.62549 12.2335 9.62549ZM12.2335 11.8751C11.8265 11.8751 11.4944 11.5484 11.4944 11.1467C11.4944 10.745 11.8265 10.4182 12.2335 10.4182C12.6406 10.4182 12.9727 10.745 12.9727 11.1467C12.9727 11.5484 12.646 11.8751 12.2335 11.8751Z" fill="white"/>
<path d="M7.35408 9.62542C7.02199 9.62542 6.71132 9.75397 6.47029 9.97358V8.71484H5.61328V12.5982H6.47029V12.325C6.71132 12.5393 7.01663 12.6732 7.35408 12.6732C8.12003 12.6732 8.74137 11.9929 8.74137 11.152C8.74137 10.311 8.12539 9.62542 7.35408 9.62542ZM7.18268 11.9072C6.86666 11.9072 6.59349 11.7197 6.47565 11.4466C6.43815 11.3555 6.41137 11.2537 6.41137 11.1466C6.41137 11.0395 6.4328 10.9377 6.47565 10.8467C6.59349 10.5735 6.86666 10.386 7.18268 10.386C7.61119 10.386 7.95399 10.7235 7.95399 11.1466C7.95399 11.5698 7.61119 11.9072 7.18268 11.9072Z" fill="white"/>
<path d="M16.449 9.68978V9.93081C16.208 9.74334 15.908 9.63086 15.5866 9.63086C14.7993 9.63086 14.1619 10.2897 14.1619 11.0985C14.1619 11.9073 14.7993 12.5661 15.5866 12.5661C15.9134 12.5661 16.2133 12.4536 16.449 12.2662V12.6732C16.449 12.6732 16.3633 13.075 15.7634 13.075V13.8302C15.7634 13.8302 16.4115 13.9052 16.99 13.3267C16.99 13.3267 17.2578 13.0428 17.3167 12.6679V9.68978H16.449ZM15.7473 11.843C15.3135 11.843 14.9653 11.5056 14.9653 11.0931C14.9653 10.6807 15.3188 10.3432 15.7473 10.3432C16.0526 10.3432 16.3205 10.5147 16.449 10.761C16.5026 10.8628 16.5294 10.9753 16.5294 11.0931C16.5294 11.211 16.4972 11.3288 16.449 11.4252C16.3205 11.677 16.0526 11.843 15.7473 11.843Z" fill="white"/>
<path d="M8.83789 8.63976V9.41643C8.83789 9.41643 9.23426 9.46999 9.30925 9.85564V12.5981H10.193V9.85564V9.83422C10.1395 9.44856 9.90915 9.15932 9.90915 9.15932C9.40566 8.56477 8.83789 8.63976 8.83789 8.63976Z" fill="white"/>
</g>
<defs>
<linearGradient id="paint0_linear_48_597" x1="11.4643" y1="19.5669" x2="11.4643" y2="4.61332" gradientUnits="userSpaceOnUse">
<stop stop-color="#00D44D"/>
<stop offset="1" stop-color="#00E56D"/>
</linearGradient>
<clipPath id="clip0_48_597">
<rect width="23" height="23" fill="white"/>
</clipPath>
</defs>
</svg>
