<svg width="57" height="57" viewBox="0 0 57 57" fill="none" xmlns="http://www.w3.org/2000/svg">
<rect width="57" height="57" fill="#7F9F52"/>
<path d="M36.0002 21.2102L28.8494 13L21.8311 21.2102" stroke="white" stroke-width="1.7" stroke-linecap="round" stroke-linejoin="round"/>
<path d="M17.8292 43.939V34.369H14.5892V32.899H22.8242V34.369H19.5842V43.939H17.8292ZM28.4807 44.149C25.6307 44.149 23.6657 41.944 23.6657 38.374C23.6657 34.819 25.6307 32.704 28.4807 32.704C31.3157 32.704 33.2807 34.819 33.2807 38.374C33.2807 41.944 31.3157 44.149 28.4807 44.149ZM28.4807 42.619C30.3107 42.619 31.4957 40.954 31.4957 38.374C31.4957 35.794 30.3107 34.219 28.4807 34.219C26.6357 34.219 25.4657 35.794 25.4657 38.374C25.4657 40.954 26.6357 42.619 28.4807 42.619ZM35.5743 43.939V32.899H38.9343C41.3943 32.899 43.1493 33.739 43.1493 36.244C43.1493 38.659 41.3943 39.754 38.9943 39.754H37.3293V43.939H35.5743ZM37.3293 38.359H38.8293C40.5843 38.359 41.4243 37.684 41.4243 36.244C41.4243 34.774 40.5243 34.309 38.7543 34.309H37.3293V38.359Z" fill="white"/>
</svg>
