<svg width="23" height="23" viewBox="0 0 23 23" fill="none" xmlns="http://www.w3.org/2000/svg">
<path d="M7.23304 20.8445C15.9123 20.8445 20.6595 13.6537 20.6595 7.41798C20.6595 7.21374 20.6595 7.01042 20.6457 6.80802C21.5692 6.14002 22.3664 5.31291 23 4.36542C22.1388 4.74722 21.2252 4.99749 20.2897 5.10786C21.2748 4.51819 22.0121 3.59061 22.3643 2.49782C21.438 3.04753 20.4246 3.4349 19.3678 3.64322C18.6564 2.88669 17.7154 2.38573 16.6905 2.21787C15.6657 2.05002 14.614 2.22461 13.6984 2.71464C12.7827 3.20468 12.0541 3.98283 11.6253 4.92868C11.1965 5.87453 11.0913 6.93535 11.3261 7.94698C9.45002 7.85287 7.61468 7.3653 5.93923 6.51592C4.26377 5.66655 2.78565 4.47434 1.6008 3.0167C0.997365 4.05553 0.812544 5.28529 1.08397 6.4556C1.3554 7.62591 2.06266 8.64878 3.06176 9.31594C2.31076 9.29393 1.57612 9.09134 0.92 8.7253V8.7851C0.920298 9.87458 1.29744 10.9304 1.98746 11.7735C2.67748 12.6166 3.63789 13.1951 4.7058 13.4109C4.01109 13.6004 3.28217 13.6281 2.57508 13.4918C2.87674 14.4294 3.46383 15.2492 4.25427 15.8368C5.04471 16.4244 5.999 16.7502 6.98372 16.7689C6.00534 17.5379 4.88493 18.1065 3.68659 18.4421C2.48825 18.7777 1.2355 18.8738 0 18.7248C2.15801 20.1096 4.66893 20.8441 7.23304 20.8408" fill="#1DA1F2"/>
</svg>
